<svg width="150" height="150" viewBox="0 0 150 150" fill="none" xmlns="http://www.w3.org/2000/svg">
<path d="M149 75C149 115.869 115.869 149 75 149C34.1309 149 1 115.869 1 75C1 34.1309 34.1309 1 75 1C115.869 1 149 34.1309 149 75Z" stroke="#FFC41E" stroke-width="2"/>
<mask id="path-2-inside-1" fill="white">
<path fill-rule="evenodd" clip-rule="evenodd" d="M59.83 36H44.8811V49.846L30.9998 49.846V64.757H44.8811V78.603H59.83V64.757H73.7109V49.846L59.83 49.846V36Z"/>
</mask>
<path d="M44.8811 36V32H40.8811V36H44.8811ZM59.83 36H63.83V32H59.83V36ZM44.8811 49.846V53.846L48.8811 53.846V49.846H44.8811ZM30.9998 49.846L30.9998 45.846H26.9998V49.846H30.9998ZM30.9998 64.757H26.9998V68.757H30.9998V64.757ZM44.8811 64.757H48.8811V60.757H44.8811V64.757ZM44.8811 78.603H40.8811V82.603H44.8811V78.603ZM59.83 78.603V82.603H63.83V78.603H59.83ZM59.83 64.757V60.757H55.83V64.757H59.83ZM73.7109 64.757V68.757H77.7109V64.757H73.7109ZM73.7109 49.846H77.7109V45.846H73.7109V49.846ZM59.83 49.846H55.83V53.846H59.83V49.846ZM44.8811 40H59.83V32H44.8811V40ZM48.8811 49.846V36H40.8811V49.846H48.8811ZM30.9998 53.846H44.8811V45.846L30.9998 45.846L30.9998 53.846ZM34.9998 64.757V49.846H26.9998V64.757H34.9998ZM44.8811 60.757H30.9998V68.757H44.8811V60.757ZM48.8811 78.603V64.757H40.8811V78.603H48.8811ZM59.83 74.603H44.8811V82.603H59.83V74.603ZM55.83 64.757V78.603H63.83V64.757H55.83ZM73.7109 60.757H59.83V68.757H73.7109V60.757ZM69.7109 49.846V64.757H77.7109V49.846H69.7109ZM59.83 53.846L73.7109 53.846V45.846L59.83 45.846V53.846ZM55.83 36V49.846H63.83V36H55.83Z" fill="#FFC41E" mask="url(#path-2-inside-1)"/>
<path d="M74.7447 73.9576L93.574 80.4733V107.053C93.574 107.569 93.3623 108.065 92.9855 108.43C92.6087 108.795 92.0976 109 91.5647 109H83.5277C82.9948 109 82.4837 108.795 82.1069 108.43C81.7301 108.065 81.5184 107.569 81.5184 107.053V93.4255H61.4258V107.053C61.4258 107.569 61.2142 108.065 60.8373 108.43C60.4605 108.795 59.9495 109 59.4166 109H51.3795C50.8467 109 50.3356 108.795 49.9588 108.43C49.582 108.065 49.3703 107.569 49.3703 107.053V81.0257C44.7038 79.4135 41.3333 75.1329 41.3333 70.064C41.3333 69.0313 41.7566 68.041 42.5102 67.3108C43.2639 66.5806 44.286 66.1704 45.3518 66.1704C46.4175 66.1704 47.4397 66.5806 48.1933 67.3108C48.9469 68.041 49.3703 69.0313 49.3703 70.064C49.3723 71.096 49.7963 72.0853 50.5495 72.815C51.3027 73.5448 52.3236 73.9556 53.3888 73.9576H74.7447ZM105.63 60.33V64.2236C105.63 66.2889 104.783 68.2696 103.276 69.73C101.768 71.1903 99.7241 72.0108 97.5925 72.0108H93.574V76.34L77.4999 70.7782V52.5428C77.4999 50.8089 79.6624 49.9402 80.9295 51.1667L84.3553 54.4896H91.09C92.4601 54.4896 94.0725 55.4533 94.6841 56.642L95.5833 58.3832H103.62C104.153 58.3832 104.664 58.5883 105.041 58.9534C105.418 59.3185 105.63 59.8137 105.63 60.33ZM91.5647 60.33C91.5647 59.945 91.4469 59.5686 91.2261 59.2484C91.0053 58.9283 90.6915 58.6787 90.3244 58.5314C89.9572 58.384 89.5532 58.3455 89.1635 58.4206C88.7737 58.4957 88.4157 58.6811 88.1347 58.9534C87.8537 59.2257 87.6623 59.5725 87.5848 59.9502C87.5073 60.3278 87.5471 60.7193 87.6992 61.075C87.8512 61.4307 88.1088 61.7348 88.4392 61.9487C88.7696 62.1626 89.1581 62.2768 89.5555 62.2768C90.0884 62.2768 90.5994 62.0717 90.9762 61.7066C91.353 61.3415 91.5647 60.8463 91.5647 60.33Z" fill="#242424"/>
<path d="M124 96.9749C124 103.675 118.483 109 111.543 109H100.865C93.9243 109 88.4075 103.675 88.4075 96.9749V91.8213H124V96.9749Z" fill="#FFC41E"/>
</svg>
