<svg width="150" height="150" viewBox="0 0 150 150" fill="none" xmlns="http://www.w3.org/2000/svg">
<circle cx="75" cy="75" r="74" stroke="#FFC41E" stroke-width="2"/>
<path d="M48 87.3465V57.0196C48 55.5572 48.5729 54.1547 49.5927 53.1206C50.6126 52.0866 51.9957 51.5056 53.438 51.5056V51.5056C54.8802 51.5056 56.2634 52.0866 57.2832 53.1206C58.303 54.1547 58.876 55.5572 58.876 57.0196V76.3186" stroke="black" stroke-width="4" stroke-linecap="round" stroke-linejoin="round"/>
<path d="M58.876 76.5001V46.1732C58.876 44.7108 59.4738 43.3083 60.538 42.2742C61.6021 41.2401 63.0454 40.6592 64.5504 40.6592C66.0553 40.6592 67.4987 41.2401 68.5628 42.2742C69.627 43.3083 70.2248 44.7108 70.2248 46.1732V73.7431" stroke="black" stroke-width="4" stroke-linecap="round" stroke-linejoin="round"/>
<path d="M81.1008 73.8122V48.9708C81.1008 47.5168 81.6987 46.1224 82.7628 45.0942C83.827 44.0661 85.2703 43.4885 86.7752 43.4885V43.4885C88.2802 43.4885 89.7235 44.0661 90.7877 45.0942C91.8518 46.1224 92.4497 47.5168 92.4497 48.9708V87.3465" stroke="black" stroke-width="4" stroke-linecap="round" stroke-linejoin="round"/>
<path d="M70.2246 73.6705V40.5244C70.2246 39.0592 70.7975 37.6541 71.8174 36.618C72.8372 35.582 74.2204 35 75.6626 35C77.1048 35 78.488 35.582 79.5078 36.618C80.5276 37.6541 81.1006 39.0592 81.1006 40.5244V73.6705" stroke="black" stroke-width="4" stroke-linecap="round" stroke-linejoin="round"/>
<path d="M48 87.4721C48 107.836 59.0896 118 74.3379 118C89.5862 118 95.7739 111.131 99.2896 102.736L108.423 77.7587C109.577 74.6278 109.054 71.7242 106.366 70.1961C103.677 68.6662 100.144 69.4537 98.6884 72.222L92.3586 87.4721" stroke="black" stroke-width="4" stroke-linecap="round" stroke-linejoin="round"/>
<path fill-rule="evenodd" clip-rule="evenodd" d="M77.3461 90.139C77.4944 90.161 77.6442 90.1721 77.7941 90.1721C78.8932 90.1721 79.9611 89.592 80.8033 88.5382C81.5528 87.6002 82.0737 86.3375 82.2718 84.9809C82.7404 81.754 81.3129 78.966 79.022 78.6286C78.8737 78.6066 78.724 78.5955 78.574 78.5955C77.4763 78.5969 76.4063 79.1763 75.5655 80.228C74.8153 81.1653 74.2916 82.4294 74.0963 83.7881C73.6277 87.0151 75.0552 89.803 77.3461 90.139ZM68.8085 90.1722C67.7101 90.1722 66.6414 89.592 65.7993 88.5382C65.0491 87.6002 64.5254 86.3375 64.33 84.9824C63.8615 81.754 65.289 78.9661 67.5799 78.6301C67.7282 78.608 67.8779 78.5969 68.0279 78.5969C69.1255 78.5969 70.1956 79.1764 71.0364 80.228C71.7866 81.1654 72.3103 82.4295 72.5063 83.7867C72.9748 87.0151 71.5474 89.803 69.2565 90.139C69.1082 90.1611 68.9584 90.1722 68.8085 90.1722ZM89.8891 88.1077C89.4963 87.1767 88.8438 86.5055 88.0016 86.1674L87.9903 86.1632C87.607 86.0134 87.1989 85.9368 86.7872 85.9373H86.7419C84.8141 85.9662 82.8459 87.6002 81.8452 90.0035C81.1113 91.7609 81.027 93.6511 81.6201 95.0599C82.0122 95.9915 82.6661 96.6628 83.5118 97.0008L83.521 97.0044C83.9044 97.154 84.3125 97.2306 84.7242 97.2302C86.6704 97.2302 88.6591 95.5963 89.6782 93.1612C90.4029 91.4059 90.4829 89.5172 89.8891 88.1077ZM82.1864 98.4731C81.0746 97.8068 80.0236 97.1766 79.3371 96.0444C77.4433 92.9106 76.2996 91.0191 73.301 91.0191C70.3024 91.0191 69.1559 92.9106 67.2578 96.0444C66.5706 97.1768 65.519 97.8076 64.4049 98.476L64.4014 98.4781L64.4013 98.4781C63.1225 99.2446 61.8012 100.037 61.2308 101.595C61.0091 102.157 60.8974 102.756 60.9017 103.359C60.9017 105.897 62.8834 107.961 65.3179 107.961C66.5741 107.961 67.911 107.527 69.3257 107.068C70.686 106.626 72.0922 106.169 73.3081 106.169C74.5239 106.169 75.9266 106.626 77.2819 107.068L77.3201 107.08C78.7178 107.532 80.0357 107.958 81.2841 107.958C83.7151 107.958 85.6932 105.894 85.6932 103.357C85.6952 102.752 85.5811 102.153 85.357 101.592C84.7867 100.033 83.465 99.2399 82.1871 98.4735L82.1864 98.4731ZM63.0907 97.0008L63.0808 97.0044C62.6982 97.1539 62.2908 97.2306 61.8798 97.2302C59.9357 97.2302 57.9477 95.5956 56.9335 93.1634C56.2011 91.4059 56.1175 89.5179 56.7106 88.1062C57.102 87.1753 57.7552 86.5019 58.5974 86.1667L58.6073 86.1632C58.9906 86.0133 59.3987 85.9367 59.8104 85.9373C61.7545 85.9373 63.7425 87.5719 64.7567 90.0042C65.4892 91.7616 65.5727 93.6497 64.9796 95.0613C64.5883 95.9922 63.935 96.6628 63.0907 97.0008Z" fill="#FFC41E"/>
</svg>
