<svg width="150" height="150" viewBox="0 0 150 150" fill="none" xmlns="http://www.w3.org/2000/svg">
<circle cx="75" cy="75" r="74" stroke="#FFC41E" stroke-width="2"/>
<path fill-rule="evenodd" clip-rule="evenodd" d="M65.5615 47.2763C65.5615 45.8769 66.1168 44.5349 67.1051 43.5454C68.0934 42.5559 69.4339 42 70.8316 42H102.452C103.85 42 105.19 42.5559 106.179 43.5454C107.167 44.5349 107.722 45.8769 107.722 47.2763V60.4671H65.5615V47.2763ZM95.8646 49.9145C95.5151 49.9145 95.18 50.0534 94.9329 50.3008C94.6859 50.5482 94.5471 50.8837 94.5471 51.2335V53.8717C94.5471 54.2215 94.6859 54.557 94.9329 54.8044C95.18 55.0518 95.5151 55.1908 95.8646 55.1908H101.135C101.484 55.1908 101.819 55.0518 102.066 54.8044C102.313 54.557 102.452 54.2215 102.452 53.8717V51.2335C102.452 50.8837 102.313 50.5482 102.066 50.3008C101.819 50.0534 101.484 49.9145 101.135 49.9145H95.8646Z" fill="#FFC41E"/>
<path d="M65.5615 65.7434V68.3816C65.5615 69.7809 66.1168 71.123 67.1051 72.1125C68.0934 73.102 69.4339 73.6579 70.8316 73.6579H102.452C103.85 73.6579 105.19 73.102 106.179 72.1125C107.167 71.123 107.722 69.7809 107.722 68.3816V65.7434H65.5615Z" fill="#FFC41E"/>
<mask id="path-4-inside-1" fill="white">
<rect x="29" y="66.6338" width="14.3347" height="41.3662" rx="2"/>
</mask>
<rect x="29" y="66.6338" width="14.3347" height="41.3662" rx="2" stroke="#242424" stroke-width="8" mask="url(#path-4-inside-1)"/>
<path d="M47.8538 73.6577V101.094C54.1779 101.094 56.1238 102.378 62.61 102.783C84.7081 109.725 89.3714 107.329 100.127 101.094C104.106 98.7881 110.573 93.7898 115.049 90.1198C121.059 84.1765 120.455 82.6063 119.105 81.2556C113.203 75.3461 106.879 89.2756 95.0738 90.1198C85.984 90.7698 70.6206 89.2756 66.8261 89.2756" stroke="#242424" stroke-width="4"/>
<path d="M46.1675 73.6577C49.8214 73.3763 57.5948 72.3246 60.9237 73.6577C65.1398 75.3462 66.8911 79.0438 69.289 79.8464C74.7604 81.6777 83.7044 81.372 87.0634 81.6777C91.7011 82.0998 99.29 82.0998 98.8684 88.4313C98.6024 92.4269 76.1016 89.2755 67.2479 89.2755" stroke="#242424" stroke-width="4"/>
</svg>
